# xmcd CD database file
#
# Track frame offsets:
#	150
#	16639
#	49539
#	86479
#	126206
#	153849
#	191182
#	222725
#	253549
#
# Disc length: 3697 seconds
#
# Revision: 0
# Processed by: cddbd v1.5.1PL0 Copyright (c) Steve Scherf et al.
# Submitted via: CDex 1.51
#
DISCID=720e6f09
DTITLE=Joe Sealy/Paul Novotny - Man in the red suit
DYEAR=2003
DGENRE=Jazz
TTITLE0=Man in the red suit
TTITLE1=Good folks
TTITLE2=The Dunes
TTITLE3=When Vince meets Monk
TTITLE4=For my children's children
TTITLE5=The Snowman
TTITLE6=We Three Kings
TTITLE7=Christmas Eve
TTITLE8=It Started
EXTD=YEAR: 2003
EXTT0=
EXTT1=
EXTT2=
EXTT3=
EXTT4=
EXTT5=
EXTT6=
EXTT7=
EXTT8=
PLAYORDER=
